<svg
    width="20"
    height="20"
    viewBox="0 0 20 20"
    fill="none"
    xmlns="http://www.w3.org/2000/svg"
    >
    <path
        fillRule="evenodd"
        clipRule="evenodd"
        d="M2.92893 2.92893C4.8043 1.05357 7.34784 0 10 0C12.6522 0 15.1957 1.05357 17.0711 2.92893C18.9464 4.8043 20 7.34784 20 10C20 12.6522 18.9464 15.1957 17.0711 17.0711C15.1957 18.9464 12.6522 20 10 20C7.34784 20 4.8043 18.9464 2.92893 17.0711C1.05357 15.1957 0 12.6522 0 10C0 7.34784 1.05357 4.8043 2.92893 2.92893ZM13.8094 6.19048L8.4464 8.44648L6.19039 13.8095L11.6208 11.6208L13.8094 6.19048Z"
        fill="#CCCCCC"
    />
    <path
        d="M10.0002 10.9524C9.74765 10.9524 9.5054 10.8521 9.3268 10.6734C9.14819 10.4948 9.04785 10.2526 9.04785 10C9.04785 9.74742 9.14819 9.50518 9.3268 9.32658C9.5054 9.14797 9.74765 9.04763 10.0002 9.04763C10.2528 9.04763 10.4951 9.14797 10.6737 9.32658C10.8523 9.50518 10.9526 9.74742 10.9526 10C10.9526 10.2526 10.8523 10.4948 10.6737 10.6734C10.4951 10.8521 10.2528 10.9524 10.0002 10.9524Z"
        fill="#CCCCCC"
    />
    </svg>